<svg xmlns="http://www.w3.org/2000/svg" version="1.1" xmlns:xlink="http://www.w3.org/1999/xlink" xmlns:svgjs="http://svgjs.dev/svgjs" width="1500" height="469" viewBox="0 0 1500 469"><g transform="matrix(1,0,0,1,-0.9090909090911055,0.15317582374436256)"><svg viewBox="0 0 396 124" data-background-color="#ffffff" preserveAspectRatio="xMidYMid meet" height="469" width="1500" xmlns="http://www.w3.org/2000/svg" xmlns:xlink="http://www.w3.org/1999/xlink"><g id="tight-bounds" transform="matrix(1,0,0,1,0.24000000000003752,-0.04049851203475896)"><svg viewBox="0 0 395.5199999999999 124.08099702406949" height="124.08099702406949" width="395.5199999999999"><g><svg viewBox="0 0 395.5199999999999 124.08099702406949" height="124.08099702406949" width="395.5199999999999"><g><svg viewBox="0 0 395.5199999999999 124.08099702406949" height="124.08099702406949" width="395.5199999999999"><g id="textblocktransform"><svg viewBox="0 0 395.5199999999999 124.08099702406949" height="124.08099702406949" width="395.5199999999999" id="textblock"><g><svg viewBox="0 0 395.5199999999999 73.14579872802094" height="73.14579872802094" width="395.5199999999999"><g transform="matrix(1,0,0,1,0,0)"><svg width="395.5199999999999" viewBox="3.25 -35.45 195.76 36.21" height="73.14579872802094" data-palette-color="#2a2c35"><path d="M31.25-10.5L31.25-10.5Q31.25-8.33 30.42-6.42 29.59-4.52 28.16-3.09 26.73-1.66 24.83-0.83 22.92 0 20.75 0L20.75 0 3.25 0 3.25-35.01 20.75-35.01Q22.92-35.01 24.83-34.18 26.73-33.35 28.16-31.92 29.59-30.49 30.42-28.59 31.25-26.68 31.25-24.51L31.25-24.51Q31.25-23.54 30.98-22.51 30.71-21.48 30.22-20.53 29.74-19.58 29.05-18.8 28.37-18.02 27.54-17.5L27.54-17.5Q28.39-17.04 29.08-16.25 29.76-15.45 30.25-14.5 30.74-13.55 30.99-12.51 31.25-11.47 31.25-10.5ZM10.25-13.99L10.25-7.01 20.75-7.01Q21.48-7.01 22.12-7.28 22.75-7.54 23.23-8.02 23.71-8.5 23.97-9.13 24.24-9.77 24.24-10.5L24.24-10.5Q24.24-11.23 23.97-11.87 23.71-12.5 23.23-12.98 22.75-13.45 22.12-13.72 21.48-13.99 20.75-13.99L20.75-13.99 10.25-13.99ZM10.25-28L10.25-21 20.75-21Q21.48-21 22.12-21.26 22.75-21.53 23.23-22.01 23.71-22.49 23.97-23.13 24.24-23.78 24.24-24.51L24.24-24.51Q24.24-25.24 23.97-25.88 23.71-26.51 23.23-26.99 22.75-27.47 22.12-27.73 21.48-28 20.75-28L20.75-28 10.25-28ZM64.16-35.01L64.16-13.99Q64.16-11.08 63.06-8.53 61.96-5.98 60.06-4.09 58.15-2.2 55.6-1.1 53.05 0 50.14 0L50.14 0Q47.24 0 44.69-1.1 42.14-2.2 40.24-4.09 38.35-5.98 37.25-8.53 36.15-11.08 36.15-13.99L36.15-13.99 36.15-35.01 43.14-35.01 43.14-13.99Q43.14-12.55 43.69-11.28 44.24-10.01 45.19-9.06 46.14-8.11 47.42-7.56 48.7-7.01 50.14-7.01L50.14-7.01Q51.58-7.01 52.87-7.56 54.15-8.11 55.1-9.06 56.05-10.01 56.6-11.28 57.15-12.55 57.15-13.99L57.15-13.99 57.15-35.01 64.16-35.01ZM85.98-10.96L85.98 0 79 0 79-10.96Q76.68-11.55 74.74-12.84 72.8-14.14 71.41-15.93 70.01-17.72 69.25-19.91 68.48-22.09 68.48-24.51L68.48-24.51 68.48-35.01 75.48-35.01 75.48-24.51Q75.48-23.07 76.03-21.79 76.58-20.51 77.53-19.56 78.49-18.6 79.77-18.05 81.05-17.5 82.49-17.5L82.49-17.5Q83.93-17.5 85.21-18.05 86.49-18.6 87.45-19.56 88.4-20.51 88.95-21.79 89.5-23.07 89.5-24.51L89.5-24.51 89.5-35.01 96.48-35.01 96.48-24.51Q96.48-22.09 95.71-19.91 94.94-17.72 93.55-15.93 92.16-14.14 90.23-12.84 88.3-11.55 85.98-10.96L85.98-10.96ZM135.54-17.36L135.54-17.36Q135.54-14.87 134.89-12.56 134.25-10.25 133.07-8.24 131.9-6.23 130.24-4.57 128.58-2.91 126.58-1.72 124.58-0.54 122.26 0.11 119.94 0.76 117.45 0.76L117.45 0.76Q114.96 0.76 112.65 0.11 110.34-0.54 108.33-1.72 106.32-2.91 104.66-4.57 103-6.23 101.81-8.24 100.63-10.25 99.98-12.56 99.33-14.87 99.33-17.36L99.33-17.36Q99.33-19.85 99.98-22.17 100.63-24.49 101.81-26.49 103-28.49 104.66-30.15 106.32-31.81 108.33-32.98 110.34-34.16 112.65-34.8 114.96-35.45 117.45-35.45L117.45-35.45Q119.94-35.45 122.26-34.8 124.58-34.16 126.58-32.98 128.58-31.81 130.24-30.15 131.9-28.49 133.07-26.49 134.25-24.49 134.89-22.17 135.54-19.85 135.54-17.36ZM128.58-17.36L128.58-17.36Q128.58-19.65 127.7-21.69 126.82-23.73 125.32-25.23 123.82-26.73 121.78-27.61 119.74-28.49 117.45-28.49L117.45-28.49Q115.13-28.49 113.1-27.61 111.08-26.73 109.56-25.23 108.05-23.73 107.17-21.69 106.29-19.65 106.29-17.36L106.29-17.36Q106.29-15.06 107.17-13.05 108.05-11.04 109.56-9.52 111.08-8.01 113.1-7.13 115.13-6.25 117.45-6.25L117.45-6.25Q119.74-6.25 121.78-7.13 123.82-8.01 125.32-9.52 126.82-11.04 127.7-13.05 128.58-15.06 128.58-17.36ZM167.74-35.01L167.74-13.99Q167.74-11.08 166.64-8.53 165.54-5.98 163.64-4.09 161.73-2.2 159.18-1.1 156.63 0 153.73 0L153.73 0Q150.82 0 148.27-1.1 145.72-2.2 143.83-4.09 141.93-5.98 140.83-8.53 139.74-11.08 139.74-13.99L139.74-13.99 139.74-35.01 146.72-35.01 146.72-13.99Q146.72-12.55 147.27-11.28 147.82-10.01 148.77-9.06 149.72-8.11 151-7.56 152.28-7.01 153.73-7.01L153.73-7.01Q155.17-7.01 156.45-7.56 157.73-8.11 158.68-9.06 159.63-10.01 160.18-11.28 160.73-12.55 160.73-13.99L160.73-13.99 160.73-35.01 167.74-35.01ZM188.51-28L188.51 0 181.53 0 181.53-28 171.01-28 171.01-35.01 199.01-35.01 199.01-28 188.51-28Z" opacity="1" transform="matrix(1,0,0,1,0,0)" fill="#2a2c35" class="wordmark-text-0" data-fill-palette-color="primary" id="text-0"></path></svg></g></svg></g><g transform="matrix(1,0,0,1,166.31615999999994,90.4137663085372)"><svg viewBox="0 0 229.20383999999999 33.667230715532284" height="33.667230715532284" width="229.20383999999999"><g transform="matrix(1,0,0,1,0,0)"><svg width="229.20383999999999" viewBox="0.35 -39.65 343.76 50.5" height="33.667230715532284" data-palette-color="#2a2c35"><path d="M11.75-35.25Q14.75-35.25 17.05-34.2 19.35-33.15 21.3-31.05L21.3-31.05 18.35-27.65Q16.8-29.05 15.33-29.75 13.85-30.45 12.2-30.45L12.2-30.45Q10.3-30.45 9.2-29.28 8.1-28.1 8.1-26.2L8.1-26.2Q8.1-24.3 9.25-23.1 10.4-21.9 13.75-20.6L13.75-20.6Q18.05-18.85 20.08-16.5 22.1-14.15 22.1-9.85L22.1-9.85Q22.1-6.9 20.75-4.48 19.4-2.05 16.88-0.65 14.35 0.75 11 0.75L11 0.75Q7.55 0.75 5-0.48 2.45-1.7 0.35-3.95L0.35-3.95 3.55-7.45Q5.35-5.85 7-5 8.65-4.15 10.6-4.15L10.6-4.15Q12.9-4.15 14.18-5.58 15.45-7 15.45-9.45L15.45-9.45Q15.45-11.6 14.33-12.98 13.2-14.35 10.15-15.5L10.15-15.5Q5.55-17.35 3.53-19.75 1.5-22.15 1.5-25.75L1.5-25.75Q1.5-28.5 2.83-30.65 4.15-32.8 6.5-34.02 8.85-35.25 11.75-35.25L11.75-35.25ZM38.45-27.15Q41.3-27.15 42.95-25.1 44.6-23.05 44.6-19.6L44.6-19.6 44.6 0 38.45 0 38.45-18.9Q38.45-20.8 37.92-21.63 37.4-22.45 36.4-22.45L36.4-22.45Q34.3-22.45 32.25-18.5L32.25-18.5 32.25 0 26.1 0 26.1-37 32.25-37.65 32.25-23.3Q33.5-25.25 34.97-26.2 36.45-27.15 38.45-27.15L38.45-27.15ZM59.55-27.15Q64.55-27.15 67.32-23.65 70.09-20.15 70.09-13.25L70.09-13.25Q70.09-6.65 67.3-2.95 64.5 0.75 59.55 0.75L59.55 0.75Q54.59 0.75 51.8-2.88 49-6.5 49-13.25L49-13.25Q49-19.95 51.8-23.55 54.59-27.15 59.55-27.15L59.55-27.15ZM59.55-22.5Q57.4-22.5 56.4-20.38 55.4-18.25 55.4-13.25L55.4-13.25Q55.4-8.2 56.4-6.08 57.4-3.95 59.55-3.95L59.55-3.95Q61.7-3.95 62.7-6.08 63.7-8.2 63.7-13.25L63.7-13.25Q63.7-18.3 62.7-20.4 61.7-22.5 59.55-22.5L59.55-22.5ZM93.49-13.85Q93.49-13.4 93.34-11.3L93.34-11.3 79.69-11.3Q79.89-7.2 81.12-5.58 82.34-3.95 84.59-3.95L84.59-3.95Q86.14-3.95 87.39-4.48 88.64-5 90.09-6.15L90.09-6.15 92.64-2.65Q89.14 0.75 84.24 0.75L84.24 0.75Q79.04 0.75 76.27-2.85 73.49-6.45 73.49-13L73.49-13Q73.49-19.55 76.14-23.35 78.79-27.15 83.64-27.15L83.64-27.15Q88.29-27.15 90.89-23.78 93.49-20.4 93.49-13.85L93.49-13.85ZM87.49-15.3L87.49-15.65Q87.49-19.4 86.59-21.13 85.69-22.85 83.69-22.85L83.69-22.85Q81.84-22.85 80.87-21.18 79.89-19.5 79.69-15.3L79.69-15.3 87.49-15.3ZM105.14-27.15Q109.84-27.15 113.09-24.05L113.09-24.05 110.74-20.7Q109.34-21.7 108.09-22.2 106.84-22.7 105.54-22.7L105.54-22.7Q104.09-22.7 103.27-21.93 102.44-21.15 102.44-19.8L102.44-19.8Q102.44-18.45 103.37-17.63 104.29-16.8 107.09-15.7L107.09-15.7Q110.54-14.35 112.19-12.5 113.84-10.65 113.84-7.55L113.84-7.55Q113.84-3.7 111.14-1.48 108.44 0.75 104.29 0.75L104.29 0.75Q101.59 0.75 99.32-0.23 97.04-1.2 95.34-2.95L95.34-2.95 98.34-6.25Q101.14-3.8 104.04-3.8L104.04-3.8Q105.69-3.8 106.64-4.67 107.59-5.55 107.59-7.1L107.59-7.1Q107.59-8.25 107.19-8.97 106.79-9.7 105.79-10.33 104.79-10.95 102.79-11.7L102.79-11.7Q99.34-13.05 97.87-14.85 96.39-16.65 96.39-19.45L96.39-19.45Q96.39-22.8 98.77-24.98 101.14-27.15 105.14-27.15L105.14-27.15ZM146.19-26.45L139.19 0.1Q137.89 4.9 134.99 7.65 132.09 10.4 127.24 10.85L127.24 10.85 126.54 6.5Q129.69 5.85 131.26 4.42 132.84 3 133.74 0L133.74 0 131.44 0 124.74-26.45 130.99-26.45 135.39-4.1 140.09-26.45 146.19-26.45ZM158.48-27.15Q163.48-27.15 166.26-23.65 169.03-20.15 169.03-13.25L169.03-13.25Q169.03-6.65 166.23-2.95 163.43 0.75 158.48 0.75L158.48 0.75Q153.53 0.75 150.73-2.88 147.93-6.5 147.93-13.25L147.93-13.25Q147.93-19.95 150.73-23.55 153.53-27.15 158.48-27.15L158.48-27.15ZM158.48-22.5Q156.33-22.5 155.33-20.38 154.33-18.25 154.33-13.25L154.33-13.25Q154.33-8.2 155.33-6.08 156.33-3.95 158.48-3.95L158.48-3.95Q160.63-3.95 161.63-6.08 162.63-8.2 162.63-13.25L162.63-13.25Q162.63-18.3 161.63-20.4 160.63-22.5 158.48-22.5L158.48-22.5ZM191.73-26.45L191.73 0 186.38 0 186.08-3.35Q184.83-1.3 183.28-0.28 181.73 0.75 179.68 0.75L179.68 0.75Q176.78 0.75 175.11-1.3 173.43-3.35 173.43-6.65L173.43-6.65 173.43-26.45 179.58-26.45 179.58-7Q179.58-3.9 181.68-3.9L181.68-3.9Q182.88-3.9 183.83-4.83 184.78-5.75 185.58-7.45L185.58-7.45 185.58-26.45 191.73-26.45ZM220.23-37.7L226.38-37.05 226.38 0 220.93 0 220.63-3.05Q218.28 0.75 214.58 0.75L214.58 0.75Q210.48 0.75 208.3-2.93 206.13-6.6 206.13-13.2L206.13-13.2Q206.13-17.4 207.25-20.58 208.38-23.75 210.38-25.45 212.38-27.15 214.98-27.15L214.98-27.15Q218.18-27.15 220.23-24.5L220.23-24.5 220.23-37.7ZM216.33-3.9Q217.48-3.9 218.4-4.7 219.33-5.5 220.23-7L220.23-7 220.23-19.85Q218.63-22.55 216.58-22.55L216.58-22.55Q212.53-22.55 212.53-13.25L212.53-13.25Q212.53-8.2 213.53-6.05 214.53-3.9 216.33-3.9L216.33-3.9ZM250.92-13.85Q250.92-13.4 250.77-11.3L250.77-11.3 237.12-11.3Q237.32-7.2 238.55-5.58 239.77-3.95 242.02-3.95L242.02-3.95Q243.57-3.95 244.82-4.48 246.07-5 247.52-6.15L247.52-6.15 250.07-2.65Q246.57 0.75 241.67 0.75L241.67 0.75Q236.47 0.75 233.7-2.85 230.92-6.45 230.92-13L230.92-13Q230.92-19.55 233.57-23.35 236.22-27.15 241.07-27.15L241.07-27.15Q245.72-27.15 248.32-23.78 250.92-20.4 250.92-13.85L250.92-13.85ZM244.92-15.3L244.92-15.65Q244.92-19.4 244.02-21.13 243.12-22.85 241.12-22.85L241.12-22.85Q239.27-22.85 238.3-21.18 237.32-19.5 237.12-15.3L237.12-15.3 244.92-15.3ZM262.57-27.15Q267.27-27.15 270.52-24.05L270.52-24.05 268.17-20.7Q266.77-21.7 265.52-22.2 264.27-22.7 262.97-22.7L262.97-22.7Q261.52-22.7 260.7-21.93 259.87-21.15 259.87-19.8L259.87-19.8Q259.87-18.45 260.8-17.63 261.72-16.8 264.52-15.7L264.52-15.7Q267.97-14.35 269.62-12.5 271.27-10.65 271.27-7.55L271.27-7.55Q271.27-3.7 268.57-1.48 265.87 0.75 261.72 0.75L261.72 0.75Q259.02 0.75 256.75-0.23 254.47-1.2 252.77-2.95L252.77-2.95 255.77-6.25Q258.57-3.8 261.47-3.8L261.47-3.8Q263.12-3.8 264.07-4.67 265.02-5.55 265.02-7.1L265.02-7.1Q265.02-8.25 264.62-8.97 264.22-9.7 263.22-10.33 262.22-10.95 260.22-11.7L260.22-11.7Q256.77-13.05 255.3-14.85 253.82-16.65 253.82-19.45L253.82-19.45Q253.82-22.8 256.2-24.98 258.57-27.15 262.57-27.15L262.57-27.15ZM275.12-26.45L281.27-26.45 281.27 0 275.12 0 275.12-26.45ZM278.17-39.65Q279.82-39.65 280.84-38.6 281.87-37.55 281.87-35.9L281.87-35.9Q281.87-34.3 280.84-33.25 279.82-32.2 278.17-32.2L278.17-32.2Q276.52-32.2 275.49-33.25 274.47-34.3 274.47-35.9L274.47-35.9Q274.47-37.55 275.49-38.6 276.52-39.65 278.17-39.65L278.17-39.65ZM298.62-27.1Q299.77-27.1 300.67-26.75L300.67-26.75 299.67-20.85Q298.67-21.1 297.82-21.1L297.82-21.1Q295.92-21.1 294.82-19.45 293.72-17.8 293.12-14.55L293.12-14.55 293.12 0 286.97 0 286.97-26.45 292.32-26.45 292.77-21.85Q294.62-27.1 298.62-27.1L298.62-27.1ZM322.36-13.85Q322.36-13.4 322.21-11.3L322.21-11.3 308.56-11.3Q308.76-7.2 309.99-5.58 311.21-3.95 313.46-3.95L313.46-3.95Q315.01-3.95 316.26-4.48 317.51-5 318.96-6.15L318.96-6.15 321.51-2.65Q318.01 0.75 313.11 0.75L313.11 0.75Q307.91 0.75 305.14-2.85 302.36-6.45 302.36-13L302.36-13Q302.36-19.55 305.01-23.35 307.66-27.15 312.51-27.15L312.51-27.15Q317.16-27.15 319.76-23.78 322.36-20.4 322.36-13.85L322.36-13.85ZM316.36-15.3L316.36-15.65Q316.36-19.4 315.46-21.13 314.56-22.85 312.56-22.85L312.56-22.85Q310.71-22.85 309.74-21.18 308.76-19.5 308.56-15.3L308.56-15.3 316.36-15.3ZM326.01-34.55L332.56-34.55 331.71-12.1 326.86-12.1 326.01-34.55ZM329.31-7.05Q330.96-7.05 332.04-5.9 333.11-4.75 333.11-3.15L333.11-3.15Q333.11-1.55 332.04-0.4 330.96 0.75 329.31 0.75L329.31 0.75Q327.66 0.75 326.59-0.4 325.51-1.55 325.51-3.15L325.51-3.15Q325.51-4.75 326.59-5.9 327.66-7.05 329.31-7.05L329.31-7.05ZM337.01-34.55L343.56-34.55 342.71-12.1 337.86-12.1 337.01-34.55ZM340.31-7.05Q341.96-7.05 343.03-5.9 344.11-4.75 344.11-3.15L344.11-3.15Q344.11-1.55 343.03-0.4 341.96 0.75 340.31 0.75L340.31 0.75Q338.66 0.75 337.58-0.4 336.51-1.55 336.51-3.15L336.51-3.15Q336.51-4.75 337.58-5.9 338.66-7.05 340.31-7.05L340.31-7.05Z" opacity="1" transform="matrix(1,0,0,1,0,0)" fill="#2a2c35" class="slogan-text-1" data-fill-palette-color="secondary" id="text-1"></path></svg></g></svg></g></svg></g></svg></g></svg></g><defs></defs></svg><rect width="395.5199999999999" height="124.08099702406949" fill="none" stroke="none" visibility="hidden"></rect></g></svg></g></svg>